<svg width="117" height="122" viewBox="0 0 117 122" fill="none" xmlns="http://www.w3.org/2000/svg">
<path d="M42.771 4.25243C43.4693 0.792521 47.7658 -0.459688 50.2137 2.08326L73.9168 26.7071C74.8637 27.6908 76.2155 28.1762 77.5719 28.0195L111.525 24.0975C115.031 23.6925 117.55 27.3917 115.888 30.5056L99.7935 60.6578C99.1506 61.8623 99.1067 63.2979 99.6748 64.5395L113.897 95.6185C115.366 98.8281 112.626 102.367 109.151 101.748L75.5009 95.7593C74.1566 95.5201 72.7777 95.922 71.7725 96.846L46.6094 119.976C44.0108 122.365 39.7988 120.852 39.3131 117.356L34.6105 83.5026C34.4226 82.1502 33.6143 80.963 32.4249 80.2925L2.6512 63.5085C-0.423583 61.7752 -0.286817 57.3021 2.8881 55.7598L33.6315 40.826C34.8596 40.2294 35.7389 39.0938 36.0091 37.7554L42.771 4.25243Z" fill="url(#paint0_linear_2_33)"/>
<defs>
<linearGradient id="paint0_linear_2_33" x1="44.423" y1="-3.93239" x2="82.5583" y2="126.914" gradientUnits="userSpaceOnUse">
<stop stop-color="#F9EAB3"/>
<stop offset="1" stop-color="#F9EAB3" stop-opacity="0"/>
</linearGradient>
</defs>
</svg>
