<svg width="106" height="102" viewBox="0 0 106 102" fill="none" xmlns="http://www.w3.org/2000/svg">
<path d="M93.9499 25.1848L39.4171 7.50995C35.8628 6.35795 32.0476 8.3054 30.8956 11.8597L19.2588 47.7632C18.1068 51.3175 20.0542 55.1327 23.6085 56.2847L78.1414 73.9596L75.3563 49.6427C75.1384 47.74 75.7371 45.8341 77.0039 44.3979L93.9499 25.1848Z" fill="url(#paint0_linear_2_340)"/>
<path d="M93.9499 25.1848L99.0236 29.6598L105.843 21.9279L96.0358 18.7491L93.9499 25.1848ZM77.0039 44.3979L82.0776 48.8729L82.0776 48.8729L77.0039 44.3979ZM75.3563 49.6427L68.635 50.4125L68.635 50.4125L75.3563 49.6427ZM78.1414 73.9596L76.0555 80.3952L86.0593 83.6376L84.8627 73.1898L78.1414 73.9596ZM37.3312 13.9456L91.8641 31.6204L96.0358 18.7491L41.503 1.07431L37.3312 13.9456ZM88.8762 20.7098L71.9302 39.9228L82.0776 48.8729L99.0236 29.6598L88.8762 20.7098ZM68.635 50.4125L71.4201 74.7294L84.8627 73.1898L82.0776 48.8729L68.635 50.4125ZM80.2273 67.5239L25.6944 49.8491L21.5226 62.7204L76.0555 80.3952L80.2273 67.5239ZM25.6944 49.8491L37.3312 13.9456L24.4599 9.77383L12.8231 45.6773L25.6944 49.8491ZM25.6944 49.8491L25.6944 49.8491L12.8231 45.6773C10.5191 52.7859 14.414 60.4164 21.5226 62.7204L25.6944 49.8491ZM71.9302 39.9228C69.3966 42.7954 68.1992 46.6072 68.635 50.4125L82.0776 48.8729L82.0776 48.8729L71.9302 39.9228ZM41.503 1.07431C34.3944 -1.22968 26.7639 2.66522 24.4599 9.77383L37.3312 13.9456L37.3312 13.9456L41.503 1.07431Z" fill="url(#paint1_linear_2_340)"/>
<path d="M43.8749 14.7074C45.6072 9.3626 42.6787 3.62551 37.334 1.8932C31.9892 0.160897 26.2521 3.08936 24.5198 8.43412L43.8749 14.7074ZM1.49201 79.4827C-0.240295 84.8275 2.68817 90.5646 8.03293 92.2969C13.3777 94.0292 19.1148 91.1007 20.8471 85.756L1.49201 79.4827ZM24.5198 8.43412L1.49201 79.4827L20.8471 85.756L43.8749 14.7074L24.5198 8.43412Z" fill="url(#paint2_linear_2_340)"/>
<defs>
<linearGradient id="paint0_linear_2_340" x1="63.4657" y1="15.3044" x2="47.6571" y2="64.0792" gradientUnits="userSpaceOnUse">
<stop stop-color="#FFE1B6"/>
<stop offset="1" stop-color="#FFE1B6" stop-opacity="0"/>
</linearGradient>
<linearGradient id="paint1_linear_2_340" x1="63.4657" y1="15.3044" x2="47.6571" y2="64.0792" gradientUnits="userSpaceOnUse">
<stop stop-color="#FFE1B6"/>
<stop offset="1" stop-color="#FFE1B6" stop-opacity="0"/>
</linearGradient>
<linearGradient id="paint2_linear_2_340" x1="34.673" y1="11.7249" x2="11.6452" y2="82.7735" gradientUnits="userSpaceOnUse">
<stop stop-color="#FFE1B6"/>
<stop offset="1" stop-color="#FFE1B6" stop-opacity="0"/>
</linearGradient>
</defs>
</svg>
